<mxfile host="Electron" agent="Mozilla/5.0 (Windows NT 10.0; Win64; x64) AppleWebKit/537.36 (KHTML, like Gecko) draw.io/26.1.1 Chrome/132.0.6834.210 Electron/34.3.3 Safari/537.36" version="26.1.1">
  <diagram id="C5RBs43oDa-KdzZeNtuy" name="Page-1">
    <mxGraphModel dx="1863" dy="606" grid="1" gridSize="10" guides="1" tooltips="1" connect="1" arrows="1" fold="1" page="1" pageScale="1" pageWidth="827" pageHeight="1169" math="0" shadow="0">
      <root>
        <mxCell id="WIyWlLk6GJQsqaUBKTNV-0" />
        <mxCell id="WIyWlLk6GJQsqaUBKTNV-1" parent="WIyWlLk6GJQsqaUBKTNV-0" />
        <mxCell id="lYURWk3fyu-yuxOFDqC3-4" value="" style="edgeStyle=orthogonalEdgeStyle;rounded=0;orthogonalLoop=1;jettySize=auto;html=1;" edge="1" parent="WIyWlLk6GJQsqaUBKTNV-1" source="lYURWk3fyu-yuxOFDqC3-0" target="lYURWk3fyu-yuxOFDqC3-3">
          <mxGeometry relative="1" as="geometry" />
        </mxCell>
        <mxCell id="lYURWk3fyu-yuxOFDqC3-0" value="START" style="rounded=1;whiteSpace=wrap;html=1;" vertex="1" parent="WIyWlLk6GJQsqaUBKTNV-1">
          <mxGeometry x="190" y="60" width="120" height="60" as="geometry" />
        </mxCell>
        <mxCell id="lYURWk3fyu-yuxOFDqC3-8" value="" style="edgeStyle=orthogonalEdgeStyle;rounded=0;orthogonalLoop=1;jettySize=auto;html=1;" edge="1" parent="WIyWlLk6GJQsqaUBKTNV-1" source="lYURWk3fyu-yuxOFDqC3-1" target="lYURWk3fyu-yuxOFDqC3-7">
          <mxGeometry relative="1" as="geometry" />
        </mxCell>
        <mxCell id="lYURWk3fyu-yuxOFDqC3-1" value="FIND FIRST LETTER OF DICTIONARY WITH SAID LETTER" style="rounded=0;whiteSpace=wrap;html=1;" vertex="1" parent="WIyWlLk6GJQsqaUBKTNV-1">
          <mxGeometry x="190" y="430" width="120" height="60" as="geometry" />
        </mxCell>
        <mxCell id="lYURWk3fyu-yuxOFDqC3-6" value="" style="edgeStyle=orthogonalEdgeStyle;rounded=0;orthogonalLoop=1;jettySize=auto;html=1;" edge="1" parent="WIyWlLk6GJQsqaUBKTNV-1" source="lYURWk3fyu-yuxOFDqC3-2" target="lYURWk3fyu-yuxOFDqC3-1">
          <mxGeometry relative="1" as="geometry" />
        </mxCell>
        <mxCell id="lYURWk3fyu-yuxOFDqC3-2" value="OPEN DICTIONARY" style="rounded=0;whiteSpace=wrap;html=1;" vertex="1" parent="WIyWlLk6GJQsqaUBKTNV-1">
          <mxGeometry x="190" y="300" width="120" height="60" as="geometry" />
        </mxCell>
        <mxCell id="lYURWk3fyu-yuxOFDqC3-5" value="" style="edgeStyle=orthogonalEdgeStyle;rounded=0;orthogonalLoop=1;jettySize=auto;html=1;" edge="1" parent="WIyWlLk6GJQsqaUBKTNV-1" source="lYURWk3fyu-yuxOFDqC3-3" target="lYURWk3fyu-yuxOFDqC3-2">
          <mxGeometry relative="1" as="geometry" />
        </mxCell>
        <mxCell id="lYURWk3fyu-yuxOFDqC3-3" value="PICK UP DICTIONARY&lt;span style=&quot;white-space: pre;&quot;&gt;&#x9;&lt;/span&gt;" style="rounded=0;whiteSpace=wrap;html=1;" vertex="1" parent="WIyWlLk6GJQsqaUBKTNV-1">
          <mxGeometry x="190" y="180" width="120" height="60" as="geometry" />
        </mxCell>
        <mxCell id="lYURWk3fyu-yuxOFDqC3-10" value="" style="edgeStyle=orthogonalEdgeStyle;rounded=0;orthogonalLoop=1;jettySize=auto;html=1;" edge="1" parent="WIyWlLk6GJQsqaUBKTNV-1" source="lYURWk3fyu-yuxOFDqC3-7" target="lYURWk3fyu-yuxOFDqC3-9">
          <mxGeometry relative="1" as="geometry" />
        </mxCell>
        <mxCell id="lYURWk3fyu-yuxOFDqC3-7" value="FIND FIRST LETTER OF DICTIONARY WITH SAID LETTER" style="rounded=0;whiteSpace=wrap;html=1;" vertex="1" parent="WIyWlLk6GJQsqaUBKTNV-1">
          <mxGeometry x="190" y="570" width="120" height="60" as="geometry" />
        </mxCell>
        <mxCell id="lYURWk3fyu-yuxOFDqC3-12" value="" style="edgeStyle=orthogonalEdgeStyle;rounded=0;orthogonalLoop=1;jettySize=auto;html=1;" edge="1" parent="WIyWlLk6GJQsqaUBKTNV-1" source="lYURWk3fyu-yuxOFDqC3-9" target="lYURWk3fyu-yuxOFDqC3-11">
          <mxGeometry relative="1" as="geometry" />
        </mxCell>
        <mxCell id="lYURWk3fyu-yuxOFDqC3-9" value="TURN PAGES WHILE COMPARING THE WORDS ALPHABETICALLY" style="whiteSpace=wrap;html=1;rounded=0;" vertex="1" parent="WIyWlLk6GJQsqaUBKTNV-1">
          <mxGeometry x="190" y="710" width="120" height="60" as="geometry" />
        </mxCell>
        <mxCell id="lYURWk3fyu-yuxOFDqC3-14" value="" style="edgeStyle=orthogonalEdgeStyle;rounded=0;orthogonalLoop=1;jettySize=auto;html=1;" edge="1" parent="WIyWlLk6GJQsqaUBKTNV-1" source="lYURWk3fyu-yuxOFDqC3-11">
          <mxGeometry relative="1" as="geometry">
            <mxPoint x="420" y="980" as="targetPoint" />
          </mxGeometry>
        </mxCell>
        <mxCell id="lYURWk3fyu-yuxOFDqC3-19" value="" style="edgeStyle=orthogonalEdgeStyle;rounded=0;orthogonalLoop=1;jettySize=auto;html=1;" edge="1" parent="WIyWlLk6GJQsqaUBKTNV-1" source="lYURWk3fyu-yuxOFDqC3-11" target="lYURWk3fyu-yuxOFDqC3-20">
          <mxGeometry relative="1" as="geometry">
            <mxPoint x="50" y="990" as="targetPoint" />
          </mxGeometry>
        </mxCell>
        <mxCell id="lYURWk3fyu-yuxOFDqC3-23" style="edgeStyle=orthogonalEdgeStyle;rounded=0;orthogonalLoop=1;jettySize=auto;html=1;exitX=0.5;exitY=1;exitDx=0;exitDy=0;" edge="1" parent="WIyWlLk6GJQsqaUBKTNV-1" source="lYURWk3fyu-yuxOFDqC3-11" target="lYURWk3fyu-yuxOFDqC3-21">
          <mxGeometry relative="1" as="geometry" />
        </mxCell>
        <mxCell id="lYURWk3fyu-yuxOFDqC3-11" value="WAS THE CORRECT WORD FOUND&amp;nbsp;" style="rhombus;whiteSpace=wrap;html=1;rounded=0;" vertex="1" parent="WIyWlLk6GJQsqaUBKTNV-1">
          <mxGeometry x="160" y="840" width="140" height="120" as="geometry" />
        </mxCell>
        <mxCell id="lYURWk3fyu-yuxOFDqC3-16" value="NO" style="text;html=1;align=center;verticalAlign=middle;resizable=0;points=[];autosize=1;strokeColor=none;fillColor=none;" vertex="1" parent="WIyWlLk6GJQsqaUBKTNV-1">
          <mxGeometry x="330" y="870" width="40" height="30" as="geometry" />
        </mxCell>
        <mxCell id="lYURWk3fyu-yuxOFDqC3-17" value="CONFIRM SPELLING TRY RELATED WORDS&amp;nbsp;" style="rounded=0;whiteSpace=wrap;html=1;" vertex="1" parent="WIyWlLk6GJQsqaUBKTNV-1">
          <mxGeometry x="360" y="980" width="120" height="50" as="geometry" />
        </mxCell>
        <mxCell id="lYURWk3fyu-yuxOFDqC3-20" value="READ THE DEFINITION OF THE WORD" style="rounded=0;whiteSpace=wrap;html=1;" vertex="1" parent="WIyWlLk6GJQsqaUBKTNV-1">
          <mxGeometry x="-10" y="960" width="120" height="60" as="geometry" />
        </mxCell>
        <mxCell id="lYURWk3fyu-yuxOFDqC3-21" value="END" style="rounded=1;whiteSpace=wrap;html=1;" vertex="1" parent="WIyWlLk6GJQsqaUBKTNV-1">
          <mxGeometry x="170" y="1040" width="120" height="60" as="geometry" />
        </mxCell>
        <mxCell id="lYURWk3fyu-yuxOFDqC3-24" value="YES" style="text;html=1;align=center;verticalAlign=middle;resizable=0;points=[];autosize=1;strokeColor=none;fillColor=none;" vertex="1" parent="WIyWlLk6GJQsqaUBKTNV-1">
          <mxGeometry x="185" y="978" width="50" height="30" as="geometry" />
        </mxCell>
      </root>
    </mxGraphModel>
  </diagram>
</mxfile>
